<svg xmlns="http://www.w3.org/2000/svg" width="900" height="400" viewBox="0 0 900 400" role="img" aria-labelledby="title desc">
  <title id="title">kaibush/grok-register GitHub Stars trend (light)</title>
  <desc id="desc">GitHub Stars increased from 0 to 438 between 2026-08-03 and 2026-09-12.</desc>
  <metadata>Generated by .github/scripts/update_stars_trend.py from .github/data/stars-history.json</metadata>
  <defs>
    <style>
      text { font-family: Inter, "Segoe UI", Arial, "Noto Sans CJK SC", sans-serif; }
      .title { fill: #1f2328; font-size: 22px; font-weight: 600; }
      .subtitle { fill: #59636e; font-size: 12px; }
      .count { fill: #1f2328; font-size: 24px; font-weight: 600; }
      .count-label { fill: #9a6700; font-size: 13px; font-weight: 600; }
      .grid { stroke: #d0d7de; stroke-width: 1; opacity: 0.65; }
      .axis { fill: #59636e; font-size: 11px; }
      .line { fill: none; stroke: #0969da; stroke-width: 3; stroke-linecap: round; stroke-linejoin: round; }
      .point { fill: #0969da; }
    </style>
  </defs>
  <text x="60" y="34" class="title">Stars 趋势</text>
  <text x="60" y="56" class="subtitle">kaibush/grok-register · 2026-08-03 — 2026-09-12</text>
  <text x="860" y="34" class="count" text-anchor="end">438</text>
  <text x="860" y="55" class="count-label" text-anchor="end">★ Stars</text>
  <line x1="60" y1="330.0" x2="860" y2="330.0" class="grid" /><text x="44" y="335.0" class="axis" text-anchor="end">0</text><line x1="60" y1="281.6" x2="860" y2="281.6" class="grid" /><text x="44" y="286.6" class="axis" text-anchor="end">100</text><line x1="60" y1="233.2" x2="860" y2="233.2" class="grid" /><text x="44" y="238.2" class="axis" text-anchor="end">200</text><line x1="60" y1="184.8" x2="860" y2="184.8" class="grid" /><text x="44" y="189.8" class="axis" text-anchor="end">300</text><line x1="60" y1="136.4" x2="860" y2="136.4" class="grid" /><text x="44" y="141.4" class="axis" text-anchor="end">400</text><line x1="60" y1="88.0" x2="860" y2="88.0" class="grid" /><text x="44" y="93.0" class="axis" text-anchor="end">500</text>
  <polyline points="60.0,330.0 80.0,291.8 100.0,272.4 120.0,252.6 140.0,240.0 160.0,235.1 180.0,230.8 200.0,225.0 220.0,218.2 240.0,210.5 260.0,196.9 280.0,185.8 300.0,182.9 320.0,181.4 340.0,178.0 360.0,176.1 380.0,175.1 400.0,173.2 420.0,169.8 440.0,169.8 460.0,169.3 480.0,166.4 500.0,165.0 520.0,163.5 540.0,160.6 560.0,154.8 580.0,151.9 600.0,146.6 620.0,142.7 640.0,140.8 660.0,137.4 680.0,133.0 700.0,130.6 720.0,128.7 740.0,127.7 760.0,125.8 780.0,122.8 800.0,120.4 820.0,119.0 840.0,118.5 860.0,118.0" class="line" />
  <text x="60.0" y="362" class="axis" text-anchor="middle">08-03</text><circle cx="60.0" cy="330.0" r="3.5" class="point" /><text x="160.0" y="362" class="axis" text-anchor="middle">08-08</text><circle cx="160.0" cy="235.1" r="3.5" class="point" /><text x="260.0" y="362" class="axis" text-anchor="middle">08-13</text><circle cx="260.0" cy="196.9" r="3.5" class="point" /><text x="360.0" y="362" class="axis" text-anchor="middle">08-18</text><circle cx="360.0" cy="176.1" r="3.5" class="point" /><text x="460.0" y="362" class="axis" text-anchor="middle">08-23</text><circle cx="460.0" cy="169.3" r="3.5" class="point" /><text x="560.0" y="362" class="axis" text-anchor="middle">08-28</text><circle cx="560.0" cy="154.8" r="3.5" class="point" /><text x="660.0" y="362" class="axis" text-anchor="middle">09-02</text><circle cx="660.0" cy="137.4" r="3.5" class="point" /><text x="760.0" y="362" class="axis" text-anchor="middle">09-07</text><circle cx="760.0" cy="125.8" r="3.5" class="point" /><text x="860.0" y="362" class="axis" text-anchor="middle">09-12</text><circle cx="860.0" cy="118.0" r="3.5" class="point" />
  <text x="860" y="386" class="subtitle" text-anchor="end">更新于 2026-09-12</text>
</svg>
