<svg xmlns="http://www.w3.org/2000/svg" width="900" height="400" viewBox="0 0 900 400" role="img" aria-labelledby="title desc">
  <title id="title">kaibush/grok-register GitHub Stars trend (light)</title>
  <desc id="desc">GitHub Stars increased from 0 to 434 between 2026-08-03 and 2026-09-10.</desc>
  <metadata>Generated by .github/scripts/update_stars_trend.py from .github/data/stars-history.json</metadata>
  <defs>
    <style>
      text { font-family: Inter, "Segoe UI", Arial, "Noto Sans CJK SC", sans-serif; }
      .title { fill: #1f2328; font-size: 22px; font-weight: 600; }
      .subtitle { fill: #59636e; font-size: 12px; }
      .count { fill: #1f2328; font-size: 24px; font-weight: 600; }
      .count-label { fill: #9a6700; font-size: 13px; font-weight: 600; }
      .grid { stroke: #d0d7de; stroke-width: 1; opacity: 0.65; }
      .axis { fill: #59636e; font-size: 11px; }
      .line { fill: none; stroke: #0969da; stroke-width: 3; stroke-linecap: round; stroke-linejoin: round; }
      .point { fill: #0969da; }
    </style>
  </defs>
  <text x="60" y="34" class="title">Stars 趋势</text>
  <text x="60" y="56" class="subtitle">kaibush/grok-register · 2026-08-03 — 2026-09-10</text>
  <text x="860" y="34" class="count" text-anchor="end">434</text>
  <text x="860" y="55" class="count-label" text-anchor="end">★ Stars</text>
  <line x1="60" y1="330.0" x2="860" y2="330.0" class="grid" /><text x="44" y="335.0" class="axis" text-anchor="end">0</text><line x1="60" y1="281.6" x2="860" y2="281.6" class="grid" /><text x="44" y="286.6" class="axis" text-anchor="end">100</text><line x1="60" y1="233.2" x2="860" y2="233.2" class="grid" /><text x="44" y="238.2" class="axis" text-anchor="end">200</text><line x1="60" y1="184.8" x2="860" y2="184.8" class="grid" /><text x="44" y="189.8" class="axis" text-anchor="end">300</text><line x1="60" y1="136.4" x2="860" y2="136.4" class="grid" /><text x="44" y="141.4" class="axis" text-anchor="end">400</text><line x1="60" y1="88.0" x2="860" y2="88.0" class="grid" /><text x="44" y="93.0" class="axis" text-anchor="end">500</text>
  <polyline points="60.0,330.0 81.1,291.8 102.1,272.4 123.2,252.6 144.2,240.0 165.3,235.1 186.3,230.8 207.4,225.0 228.4,218.2 249.5,210.5 270.5,196.9 291.6,185.8 312.6,182.9 333.7,181.4 354.7,178.0 375.8,176.1 396.8,175.1 417.9,173.2 438.9,169.8 460.0,169.8 481.1,169.3 502.1,166.4 523.2,165.0 544.2,163.5 565.3,160.6 586.3,154.8 607.4,151.9 628.4,146.6 649.5,142.7 670.5,140.8 691.6,137.4 712.6,133.0 733.7,130.6 754.7,128.7 775.8,127.7 796.8,125.8 817.9,122.8 838.9,120.4 860.0,119.9" class="line" />
  <text x="60.0" y="362" class="axis" text-anchor="middle">08-03</text><circle cx="60.0" cy="330.0" r="3.5" class="point" /><text x="165.3" y="362" class="axis" text-anchor="middle">08-08</text><circle cx="165.3" cy="235.1" r="3.5" class="point" /><text x="270.5" y="362" class="axis" text-anchor="middle">08-13</text><circle cx="270.5" cy="196.9" r="3.5" class="point" /><text x="354.7" y="362" class="axis" text-anchor="middle">08-17</text><circle cx="354.7" cy="178.0" r="3.5" class="point" /><text x="460.0" y="362" class="axis" text-anchor="middle">08-22</text><circle cx="460.0" cy="169.8" r="3.5" class="point" /><text x="565.3" y="362" class="axis" text-anchor="middle">08-27</text><circle cx="565.3" cy="160.6" r="3.5" class="point" /><text x="649.5" y="362" class="axis" text-anchor="middle">08-31</text><circle cx="649.5" cy="142.7" r="3.5" class="point" /><text x="754.7" y="362" class="axis" text-anchor="middle">09-05</text><circle cx="754.7" cy="128.7" r="3.5" class="point" /><text x="860.0" y="362" class="axis" text-anchor="middle">09-10</text><circle cx="860.0" cy="119.9" r="3.5" class="point" />
  <text x="860" y="386" class="subtitle" text-anchor="end">更新于 2026-09-10</text>
</svg>
