<svg xmlns="http://www.w3.org/2000/svg" width="900" height="400" viewBox="0 0 900 400" role="img" aria-labelledby="title desc">
  <title id="title">kaibush/grok-register GitHub Stars trend (light)</title>
  <desc id="desc">GitHub Stars increased from 0 to 433 between 2026-08-03 and 2026-09-09.</desc>
  <metadata>Generated by .github/scripts/update_stars_trend.py from .github/data/stars-history.json</metadata>
  <defs>
    <style>
      text { font-family: Inter, "Segoe UI", Arial, "Noto Sans CJK SC", sans-serif; }
      .title { fill: #1f2328; font-size: 22px; font-weight: 600; }
      .subtitle { fill: #59636e; font-size: 12px; }
      .count { fill: #1f2328; font-size: 24px; font-weight: 600; }
      .count-label { fill: #9a6700; font-size: 13px; font-weight: 600; }
      .grid { stroke: #d0d7de; stroke-width: 1; opacity: 0.65; }
      .axis { fill: #59636e; font-size: 11px; }
      .line { fill: none; stroke: #0969da; stroke-width: 3; stroke-linecap: round; stroke-linejoin: round; }
      .point { fill: #0969da; }
    </style>
  </defs>
  <text x="60" y="34" class="title">Stars 趋势</text>
  <text x="60" y="56" class="subtitle">kaibush/grok-register · 2026-08-03 — 2026-09-09</text>
  <text x="860" y="34" class="count" text-anchor="end">433</text>
  <text x="860" y="55" class="count-label" text-anchor="end">★ Stars</text>
  <line x1="60" y1="330.0" x2="860" y2="330.0" class="grid" /><text x="44" y="335.0" class="axis" text-anchor="end">0</text><line x1="60" y1="281.6" x2="860" y2="281.6" class="grid" /><text x="44" y="286.6" class="axis" text-anchor="end">100</text><line x1="60" y1="233.2" x2="860" y2="233.2" class="grid" /><text x="44" y="238.2" class="axis" text-anchor="end">200</text><line x1="60" y1="184.8" x2="860" y2="184.8" class="grid" /><text x="44" y="189.8" class="axis" text-anchor="end">300</text><line x1="60" y1="136.4" x2="860" y2="136.4" class="grid" /><text x="44" y="141.4" class="axis" text-anchor="end">400</text><line x1="60" y1="88.0" x2="860" y2="88.0" class="grid" /><text x="44" y="93.0" class="axis" text-anchor="end">500</text>
  <polyline points="60.0,330.0 81.6,291.8 103.2,272.4 124.9,252.6 146.5,240.0 168.1,235.1 189.7,230.8 211.4,225.0 233.0,218.2 254.6,210.5 276.2,196.9 297.8,185.8 319.5,182.9 341.1,181.4 362.7,178.0 384.3,176.1 405.9,175.1 427.6,173.2 449.2,169.8 470.8,169.8 492.4,169.3 514.1,166.4 535.7,165.0 557.3,163.5 578.9,160.6 600.5,154.8 622.2,151.9 643.8,146.6 665.4,142.7 687.0,140.8 708.6,137.4 730.3,133.0 751.9,130.6 773.5,128.7 795.1,127.7 816.8,125.8 838.4,122.8 860.0,120.4" class="line" />
  <text x="60.0" y="362" class="axis" text-anchor="middle">08-03</text><circle cx="60.0" cy="330.0" r="3.5" class="point" /><text x="168.1" y="362" class="axis" text-anchor="middle">08-08</text><circle cx="168.1" cy="235.1" r="3.5" class="point" /><text x="254.6" y="362" class="axis" text-anchor="middle">08-12</text><circle cx="254.6" cy="210.5" r="3.5" class="point" /><text x="362.7" y="362" class="axis" text-anchor="middle">08-17</text><circle cx="362.7" cy="178.0" r="3.5" class="point" /><text x="449.2" y="362" class="axis" text-anchor="middle">08-21</text><circle cx="449.2" cy="169.8" r="3.5" class="point" /><text x="557.3" y="362" class="axis" text-anchor="middle">08-26</text><circle cx="557.3" cy="163.5" r="3.5" class="point" /><text x="665.4" y="362" class="axis" text-anchor="middle">08-31</text><circle cx="665.4" cy="142.7" r="3.5" class="point" /><text x="751.9" y="362" class="axis" text-anchor="middle">09-04</text><circle cx="751.9" cy="130.6" r="3.5" class="point" /><text x="860.0" y="362" class="axis" text-anchor="middle">09-09</text><circle cx="860.0" cy="120.4" r="3.5" class="point" />
  <text x="860" y="386" class="subtitle" text-anchor="end">更新于 2026-09-09</text>
</svg>
