<svg xmlns="http://www.w3.org/2000/svg" width="900" height="400" viewBox="0 0 900 400" role="img" aria-labelledby="title desc">
  <title id="title">kaibush/grok-register GitHub Stars trend (light)</title>
  <desc id="desc">GitHub Stars increased from 0 to 489 between 2026-08-03 and 2026-10-09.</desc>
  <metadata>Generated by .github/scripts/update_stars_trend.py from .github/data/stars-history.json</metadata>
  <defs>
    <style>
      text { font-family: Inter, "Segoe UI", Arial, "Noto Sans CJK SC", sans-serif; }
      .title { fill: #1f2328; font-size: 22px; font-weight: 600; }
      .subtitle { fill: #59636e; font-size: 12px; }
      .count { fill: #1f2328; font-size: 24px; font-weight: 600; }
      .count-label { fill: #9a6700; font-size: 13px; font-weight: 600; }
      .grid { stroke: #d0d7de; stroke-width: 1; opacity: 0.65; }
      .axis { fill: #59636e; font-size: 11px; }
      .line { fill: none; stroke: #0969da; stroke-width: 3; stroke-linecap: round; stroke-linejoin: round; }
      .point { fill: #0969da; }
    </style>
  </defs>
  <text x="60" y="34" class="title">Stars 趋势</text>
  <text x="60" y="56" class="subtitle">kaibush/grok-register · 2026-08-03 — 2026-10-09</text>
  <text x="860" y="34" class="count" text-anchor="end">489</text>
  <text x="860" y="55" class="count-label" text-anchor="end">★ Stars</text>
  <line x1="60" y1="330.0" x2="860" y2="330.0" class="grid" /><text x="44" y="335.0" class="axis" text-anchor="end">0</text><line x1="60" y1="281.6" x2="860" y2="281.6" class="grid" /><text x="44" y="286.6" class="axis" text-anchor="end">100</text><line x1="60" y1="233.2" x2="860" y2="233.2" class="grid" /><text x="44" y="238.2" class="axis" text-anchor="end">200</text><line x1="60" y1="184.8" x2="860" y2="184.8" class="grid" /><text x="44" y="189.8" class="axis" text-anchor="end">300</text><line x1="60" y1="136.4" x2="860" y2="136.4" class="grid" /><text x="44" y="141.4" class="axis" text-anchor="end">400</text><line x1="60" y1="88.0" x2="860" y2="88.0" class="grid" /><text x="44" y="93.0" class="axis" text-anchor="end">500</text>
  <polyline points="60.0,330.0 77.0,291.8 94.0,272.4 111.1,252.6 128.1,240.0 145.1,235.1 162.1,230.8 179.1,225.0 196.2,218.2 213.2,210.5 230.2,196.9 247.2,185.8 264.3,182.9 281.3,181.4 298.3,178.0 315.3,176.1 332.3,175.1 349.4,173.2 366.4,169.8 383.4,169.8 400.4,169.3 417.4,166.4 434.5,165.0 451.5,163.5 468.5,160.6 485.5,154.8 502.6,151.9 519.6,150.9 536.6,104.9 553.6,104.9 570.6,103.5 587.7,101.1 604.7,100.1 621.7,99.6 638.7,99.1 655.7,98.6 672.8,98.2 689.8,97.7 706.8,97.2 723.8,97.2 740.9,96.2 757.9,96.7 774.9,96.2 791.9,96.2 808.9,94.8 826.0,94.8 843.0,94.3 860.0,93.3" class="line" />
  <text x="60.0" y="362" class="axis" text-anchor="middle">08-03</text><circle cx="60.0" cy="330.0" r="3.5" class="point" /><text x="162.1" y="362" class="axis" text-anchor="middle">08-09</text><circle cx="162.1" cy="230.8" r="3.5" class="point" /><text x="264.3" y="362" class="axis" text-anchor="middle">08-15</text><circle cx="264.3" cy="182.9" r="3.5" class="point" /><text x="366.4" y="362" class="axis" text-anchor="middle">08-21</text><circle cx="366.4" cy="169.8" r="3.5" class="point" /><text x="468.5" y="362" class="axis" text-anchor="middle">08-27</text><circle cx="468.5" cy="160.6" r="3.5" class="point" /><text x="553.6" y="362" class="axis" text-anchor="middle">09-21</text><circle cx="553.6" cy="104.9" r="3.5" class="point" /><text x="655.7" y="362" class="axis" text-anchor="middle">09-27</text><circle cx="655.7" cy="98.6" r="3.5" class="point" /><text x="757.9" y="362" class="axis" text-anchor="middle">10-03</text><circle cx="757.9" cy="96.7" r="3.5" class="point" /><text x="860.0" y="362" class="axis" text-anchor="middle">10-09</text><circle cx="860.0" cy="93.3" r="3.5" class="point" />
  <text x="860" y="386" class="subtitle" text-anchor="end">更新于 2026-10-09</text>
</svg>
